<?xml version="1.0" encoding="utf-8"?>
<!-- Generator: Adobe Illustrator 19.0.0, SVG Export Plug-In . SVG Version: 6.00 Build 0)  -->
<svg version="1.1" id="Capa_1" xmlns="http://www.w3.org/2000/svg" xmlns:xlink="http://www.w3.org/1999/xlink" x="0px" y="0px"
	 width="512px" height="512px" viewBox="-243 -57 512 512" style="enable-background:new -243 -57 512 512;" xml:space="preserve">
<style type="text/css">
	.st0{fill:#FFFFFF;}
</style>
<g>
	<path class="st0" d="M-242,454H14V-58h-256V454z M-82,6h64v64h-64V6z M-82,134h64v64h-64V134z M-82,262h64v64h-64V262z M-210,6h64
		v64h-64V6z M-210,134h64v64h-64V134z M-210,262h64v64h-64V262z M46,102h224v32H46V102z M46,454h64V326h96v128h64V166H46V454z"/>
</g>
</svg>
