<?xml version="1.0" encoding="utf-8"?>
<!-- Generator: Adobe Illustrator 19.0.0, SVG Export Plug-In . SVG Version: 6.00 Build 0)  -->
<svg version="1.1" id="Capa_1" xmlns="http://www.w3.org/2000/svg" xmlns:xlink="http://www.w3.org/1999/xlink" x="0px" y="0px"
	 width="512px" height="512px" viewBox="-243 -57 512 512" style="enable-background:new -243 -57 512 512;" xml:space="preserve">
<style type="text/css">
	.st0{fill:#FFFFFF;}
</style>
<g>
	<g id="_x33__13_">
		<g>
			<path class="st0" d="M214.4,169.4l-85.9,57.3c0-17.4-7.9-32.7-20.1-43.3c29.1-17.5,48.7-49.1,48.7-85.6
				c0-55.3-44.9-100.2-100.2-100.2S-43.3,42.5-43.3,97.8c0,28.1,11.6,53.4,30.2,71.6h-52.5c13.7-15.2,22.3-35.2,22.3-57.3
				c0-47.4-38.4-85.9-85.9-85.9S-215,64.7-215,112.1c0,25.9,11.7,48.8,29.8,64.5c-17.7,9.7-29.8,28.3-29.8,50v114.5
				c0,31.6,25.6,57.3,57.3,57.3h229c31.6,0,57.3-25.6,57.3-57.3l85.9,57.3c15.8,0,28.6-12.8,28.6-28.6V198
				C243,182.2,230.2,169.4,214.4,169.4z M-129.1,169.4c-31.6,0-57.3-25.6-57.3-57.3s25.6-57.3,57.3-57.3s57.3,25.6,57.3,57.3
				S-97.5,169.4-129.1,169.4z M56.9,169.5c-39.6,0-71.7-32.1-71.7-71.7c0-39.6,32.1-71.7,71.7-71.7s71.7,32.1,71.7,71.7
				S96.6,169.5,56.9,169.5z"/>
		</g>
	</g>
</g>
</svg>
