<?xml version="1.0" encoding="utf-8"?>
<!-- Generator: Adobe Illustrator 19.0.0, SVG Export Plug-In . SVG Version: 6.00 Build 0)  -->
<svg version="1.1" id="Capa_1" xmlns="http://www.w3.org/2000/svg" xmlns:xlink="http://www.w3.org/1999/xlink" x="0px" y="0px"
	 width="512px" height="512px" viewBox="-243 -57 512 512" style="enable-background:new -243 -57 512 512;" xml:space="preserve">
<style type="text/css">
	.st0{fill:#FFFFFF;}
</style>
<path class="st0" d="M186.3,225.6c-19.2-27.9-29-48.9-31.6-83.7c-2-26,9-56.1,9-56.1c-13.6,9-13.7,8.1-22.7,15.5
	c-46.6,38.5-58.8,77.1-60.2,82.1c-0.1,0.4-0.2,0.6-0.2,0.6l0.2-0.6c0,0,36.4-142.5-65-208.9C7.3-31.1-12.1-42-12.1-42
	S38.2,81.5-51.9,154.7c-17.7-72.4-111.4-73.3-111.4-73.3s7.2,25.2,8.4,31.2c15.2,78.7-31.4,103.6-40.8,178c1.1-8.5,0.6-5.1,0,0
	c0,0,0,0,0,0.1c0,0,0,0,0,0c0,0,0,0,0,0.1c-7.4,58.4,20.5,103.7,63.2,134.2c2-20.6,10.4-41.1,22.2-58.1
	c13.3-19.3,20.1-33.8,21.9-57.9c1.3-18-6.2-38.8-6.2-38.8c9.4,6.3,9.5,5.6,15.7,10.7c26.2,21.7,36.7,43.3,40.2,52.5
	c0.1-0.1,0.2-0.1,0.4-0.2c-4.5-20.2-17.1-98.8,46-140.1c5.8-3.8,19.3-11.4,19.3-11.4s-35.7,78.1,42.9,141.6
	c-1.8-26,8.2-50,26.7-68.4c10.1-10,28.2-14.9,28.2-14.9s-5,17.5-5.8,21.6c-10.5,54.5,35.2,96.8,25.5,148.4c-1.8,9.7-4.5,19.1-8.1,28
	h4.4c23.2-12.4,44.7-28.5,59.5-50.6C233.6,337.1,218.5,272.5,186.3,225.6z"/>
</svg>
