<?xml version="1.0" encoding="utf-8"?>
<!-- Generator: Adobe Illustrator 19.0.0, SVG Export Plug-In . SVG Version: 6.00 Build 0)  -->
<svg version="1.1" id="Capa_1" xmlns="http://www.w3.org/2000/svg" xmlns:xlink="http://www.w3.org/1999/xlink" x="0px" y="0px"
	 width="512px" height="512px" viewBox="-243 -57 512 512" style="enable-background:new -243 -57 512 512;" xml:space="preserve">
<style type="text/css">
	.st0{fill:#FFFFFF;}
</style>
<g>
	<path class="st0" d="M263.4,132.4L18.2-3.2c-2.6-1.4-5.8-1.4-8.4,0L-236.3,133c-3.5,1.9-5.2,5.9-4.2,9.7c1,3.8,4.4,6.5,8.4,6.5h8.8
		v12.3c0,4.8,3.9,8.7,8.7,8.7h10.6v12.3c0,4.8,3.9,8.7,8.7,8.7h12.3v150.3h-12.3c-4.8,0-8.7,3.9-8.7,8.7v12.3h-10.6
		c-4.8,0-8.7,3.9-8.7,8.7v20.9c0,4.8,3.9,8.7,8.7,8.7h457.3c4.8,0,8.7-3.9,8.7-8.7v-20.9c0-4.8-3.9-8.7-8.7-8.7h-10.6V350
		c0-4.8-3.9-8.7-8.7-8.7h-12.3V191.1h12.3c4.8,0,8.7-3.9,8.7-8.7v-12.3h10.6c4.8,0,8.7-3.9,8.7-8.7v-12.3h8.8c0.1,0,0.1,0,0.2,0
		c4.8,0,8.7-3.9,8.7-8.7C269,136.8,266.7,133.7,263.4,132.4z M14,14.3l212.6,117.6h-425.1L14,14.3z M-165.8,191.1h24.6v150.3h-24.6
		C-165.8,341.3-165.8,191.1-165.8,191.1z M-123.9,191.1h24.6v150.3h-24.6V191.1z M-15.6,191.1v150.3h-24.6V191.1
		C-40.1,191.1-15.6,191.1-15.6,191.1z M68.2,191.1v150.3H43.6V191.1C43.6,191.1,68.2,191.1,68.2,191.1z M110.1,341.3H85.5V191.1
		h24.6V341.3z M26.3,341.3H1.8V191.1h24.6V341.3z M-57.5,341.3H-82V191.1h24.6V341.3z M234,383.2h-440v-3.6h10.6h418.9H234
		L234,383.2L234,383.2z M214.8,362.3h-401.6v-3.6h401.6V362.3z M127.4,341.3V191.1H152v150.3L127.4,341.3L127.4,341.3z M193.9,341.3
		h-24.6V191.1h24.6L193.9,341.3L193.9,341.3z M214.8,173.8h-12.3h-41.9h-41.9H76.9H35H-6.9h-41.9h-41.9h-41.9h-41.9h-12.3v-3.6
		h401.6V173.8z M234,152.8h-10.6h-418.9H-206v-3.6h440V152.8z"/>
</g>
</svg>
