<?xml version="1.0" encoding="utf-8"?>
<!-- Generator: Adobe Illustrator 19.0.0, SVG Export Plug-In . SVG Version: 6.00 Build 0)  -->
<svg version="1.1" id="Capa_1" xmlns="http://www.w3.org/2000/svg" xmlns:xlink="http://www.w3.org/1999/xlink" x="0px" y="0px"
	 width="512px" height="512px" viewBox="-243 -57 512 512" style="enable-background:new -243 -57 512 512;" xml:space="preserve">
<style type="text/css">
	.st0{fill:#FFFFFF;}
</style>
<g>
	<path class="st0" d="M252.5,247.1L29.6,24.6V10.3h11.6c9.1,0,16.4-7,16.4-16.1c0-9.1-7.3-16.1-16.4-16.1H29.6v-11
		c0-9.1-7-16.5-16.1-16.5C4.4-49.4-2.7-42.1-2.7-33v11h-11c-9.1,0-16.4,7-16.4,16.1s7.4,16.1,16.4,16.1h11v14.3l-222.6,222.5
		c-6.3,6.3-8.2,15.9-4.8,24.1c3.4,8.2,11.4,13.7,20.3,13.7h18.5l0.1,144.4c0,8.7,7.1,15.5,15.8,15.5h128.9v-78
		c0-33.3,27.3-60.3,60.6-60.3s60.6,27,60.6,60.3v78H203c4.2,0,8.2-1.5,11.1-4.5c3-3,4.6-6.7,4.6-10.9l0-144.5h18.6
		c8.9,0,16.7-5.5,20.1-13.7C260.8,263,258.7,253.4,252.5,247.1z M45,201.1c0,3.6-3,6.4-6.6,6.4h-49.3c-3.6,0-6-2.7-6-6.4v-45.5
		c0-17.3,13.7-31.2,30.9-31.2s30.9,14,30.9,31.2L45,201.1L45,201.1z"/>
</g>
</svg>
