<?xml version="1.0" encoding="utf-8"?>
<!-- Generator: Adobe Illustrator 19.0.0, SVG Export Plug-In . SVG Version: 6.00 Build 0)  -->
<svg version="1.1" id="Capa_1" xmlns="http://www.w3.org/2000/svg" xmlns:xlink="http://www.w3.org/1999/xlink" x="0px" y="0px"
	 width="512px" height="512px" viewBox="-243 -57 512 512" style="enable-background:new -243 -57 512 512;" xml:space="preserve">
<style type="text/css">
	.st0{fill:#FFFFFF;}
</style>
<g>
	<path class="st0" d="M245.7,378.9v-42.5c3.5-1.5,19.3-8.1,19.3-17.6c0-10.5,0-53.2,0-53.2h2.5v-5.7h-1.6c0.2-1.2,0.3-2.2,0.3-3
		c0-4.2-3.5-9.2-7.5-11.1c0.2-0.3,0.3-0.6,0.3-0.9c0-1.1-1.4-2.1-3.1-2.3c0.7-0.4,1.2-1.4,1.2-2.5c0-1.2-0.5-2.1-1.2-2.6v-5.6h-1.6
		v5.7c-0.7,0.5-1.3,1.4-1.3,2.5s0.5,2.2,1.3,2.5c-1.9,0.2-3.3,1.2-3.3,2.3c0,0.3,0.2,0.6,0.4,0.9c-2.4,1.1-4.4,3.1-5.8,5.5v-94.4
		h0.4l13.6-12.8h0.7v-20.9h-14.6v-16.8l13.6-16.9V59.9h0.2V36.4h-0.2v-0.2h2.5v-5.7h-1.6c0.2-1.2,0.3-2.2,0.3-3
		c0-4.3-3.4-9.2-7.5-11.1c0.2-0.3,0.3-0.6,0.3-0.9c0-1.2-1.4-2.1-3.2-2.3c0.7-0.4,1.2-1.4,1.2-2.5c0-1.2-0.5-2.1-1.2-2.5V2.4h-1.6
		v5.7c-0.7,0.4-1.3,1.4-1.3,2.5c0,1.1,0.5,2.1,1.3,2.5c-1.9,0.3-3.3,1.2-3.3,2.3c0,0.3,0.1,0.6,0.4,0.9c-4,1.8-7.6,6.8-7.6,11.1
		c0,0.8,0.2,1.8,0.4,3h-1.5v5.7h2.7V61H236v-8.3l-3.8-5.1h-3.9l-4.5,5.1v8.3H213v-8.3l-3.8-5.1h-3.9l-4.4,5.1v8.3h-10.8v-8.3
		l-3.8-5.1h-3.9l-4.4,5.1v8.3h-10.8v-8.3l-3.8-5.1h-3.9l-4.4,5.1v8.3h-10.8v-8.3l-3.8-5.1h-3.9l-4.4,5.1v8.3h-10.7v-8.3l-3.8-5.1h-4
		l-4.4,5.1v8.3H98.3v-8.3l-3.8-5.1h-3.9l-4.4,5.1v8.3h-4.3V36.2h2.7v-5.7H83c0.2-1.2,0.3-2.2,0.3-3c0-4.3-3.4-9.2-7.5-11.1
		c0.2-0.3,0.4-0.6,0.4-0.9c0-1.2-1.5-2.1-3.3-2.3c0.8-0.4,1.4-1.4,1.4-2.5c0-1.2-0.5-2.1-1.3-2.5V2.4h-1.6v5.7
		c-0.7,0.4-1.3,1.4-1.3,2.5c0,1.1,0.6,2.1,1.3,2.5c-1.8,0.3-3.2,1.2-3.2,2.3c0,0.3,0.1,0.6,0.4,0.9c-4.1,1.8-7.5,6.8-7.5,11.1
		c0,0.8,0.1,1.8,0.3,3h-1.7v5.7h2.6v53.2l12.9,17.9v15.9H60.5v20.8h0.8l13.5,12.8h0.4v118.2H61.6v10.7H40.5v-10.7h-23v10.7H-3.6
		v-10.7h-22.9v10.7h-21.1v-10.7h-22.9v10.7h-21.1v-10.7h-22.9v10.7h-12.9c0-4.8,0-8,0-8h2.5V272h-1.8c0.2-1.2,0.4-2.2,0.4-3
		c0-4.3-3.5-9.1-7.5-11.1c0.3-0.3,0.4-0.5,0.4-0.9c0-1.1-1.4-2-3.2-2.2c0.8-0.4,1.3-1.4,1.3-2.5s-0.5-2.1-1.3-2.5V244h-1.5v5.8
		c-0.8,0.3-1.2,1.3-1.2,2.5c0,1.1,0.5,2.1,1.3,2.5c-1.8,0.2-3.2,1.1-3.2,2.2c0,0.3,0.1,0.6,0.4,0.9c-4.1,2-7.5,6.9-7.5,11.1
		c0,0.8,0.1,1.8,0.3,3h-1.5v5.8h2.6v8h-7.6v-10.7H-178v10.7h-18.2v-10.7h-16.9v-3h-1.4c0.2-1.2,0.3-2.2,0.3-3
		c0-4.3-3.4-9.1-7.5-11.1c0.2-0.3,0.3-0.5,0.3-0.9c0-1.1-1.4-2-3.2-2.2c0.8-0.4,1.3-1.5,1.3-2.6c0-1.1-0.5-2.1-1.3-2.5V244h-1.5v5.8
		c-0.8,0.3-1.3,1.3-1.3,2.5c0,1.1,0.6,2.1,1.3,2.5c-1.8,0.2-3.2,1.1-3.2,2.2c0,0.3,0.1,0.6,0.3,0.9c-4.1,2-7.5,6.9-7.5,11.1
		c0,0.8,0.2,1.8,0.3,3h-1.7v5.8h2.5c0,0,0,42.6,0,53.2c0,7,8.8,12.5,14.7,15.5v32.3H-242v14.4h511.8v-14.4L245.7,378.9L245.7,378.9z
		 M-214.9,285.8h-0.8v-8h0.8V285.8z M164,78.3c7.4,0,13.4,5.9,13.6,13.3h0.1v30.2h-27.2V92.4c0-0.2-0.1-0.4-0.1-0.5
		C150.5,84.3,156.5,78.3,164,78.3z M127.9,165.3c0-7.6,6.1-13.6,13.6-13.6c7.4,0,13.4,5.9,13.7,13.3h0.1v30.3h-27.2v-29.5
		C128.1,165.6,127.9,165.5,127.9,165.3z M166.4,372.3h-31.3v-33.8c0-0.3-0.1-0.5-0.1-0.6c0-8.7,7-15.6,15.6-15.6
		c8.5,0,15.5,6.9,15.7,15.3h0.2L166.4,372.3L166.4,372.3z M196.5,195.2h-27.3v-29.4c0-0.2-0.1-0.3-0.1-0.5c0-7.6,6-13.6,13.6-13.6
		c7.4,0,13.4,5.9,13.5,13.3h0.2L196.5,195.2L196.5,195.2z"/>
</g>
</svg>
