<?xml version="1.0" encoding="utf-8"?>
<!-- Generator: Adobe Illustrator 19.0.0, SVG Export Plug-In . SVG Version: 6.00 Build 0)  -->
<svg version="1.1" id="Capa_1" xmlns="http://www.w3.org/2000/svg" xmlns:xlink="http://www.w3.org/1999/xlink" x="0px" y="0px"
	 width="512px" height="350.4px" viewBox="-243 22.4 512 350.4" style="enable-background:new -243 22.4 512 350.4;"
	 xml:space="preserve">
<g>
	<polygon points="8.3,163.6 -201,22.4 -201,84.4 -201,93 -201,333.6 -150.7,372.8 -150.7,128.9 8.3,233.9 	"/>
	<polygon points="17.7,163.6 227,22.4 227,84.4 227,93 227,333.6 177.9,372.8 177.9,128.9 17.7,233.9 	"/>
	<polygon points="153.3,329 26,241.2 68.3,212.3 153.3,268.5 	"/>
	<polygon points="-141.4,344 4,241.2 -38.2,212.3 -130.8,274.8 -130.8,151.1 -141.4,143.6 	"/>
	<polygon points="14.5,258.6 -141.4,366.8 -141.4,356 14.4,246.2 160.3,346 160.3,151.1 169.7,143.8 169.7,366 	"/>
</g>
</svg>
