<?xml version="1.0" encoding="utf-8"?>
<!-- Generator: Adobe Illustrator 19.0.0, SVG Export Plug-In . SVG Version: 6.00 Build 0)  -->
<svg version="1.1" id="Capa_1" xmlns="http://www.w3.org/2000/svg" xmlns:xlink="http://www.w3.org/1999/xlink" x="0px" y="0px"
	 width="512px" height="512px" viewBox="-243 -57 512 512" style="enable-background:new -243 -57 512 512;" xml:space="preserve">
<style type="text/css">
	.st0{fill:#FFFFFF;}
</style>
<g>
	<path class="st0" d="M139.9,24.8c-12,0-21.2,1.1-29.8,9.2c-8.7,8.1-19,17.3-19,17.3s-10.8-5.4-14.7-13c-3.7-7.6-9.7-17.3-18.9-22.7
		c-9.3-5.4-18-7.1-24.4-10.9C26.6,0.9,7.7-9.9-1-13.2c-8.7-3.3-13.6-6.5-21.7-10.8c-8.1-4.3-24.9-7.6-35.7-9.2
		c0,0-2.7-14.6-21.1-20.8c-21.7-7.4-34.7,1.3-34.7,1.3s-3.7-1.1-7.1,0c-3.2,1.1-2.2,3.8-4.3,3.8c-2.2,0-3.3,1.6-4.3,3.2
		c-1.1,1.6-1.1,3.8-2.1,5.4c-1.1,1.6-3.2,1.6-2.7,4.9c0.5,3.2,0.5,3.2,0.5,3.2s-11.7,33.7,19,47.8C-77.3,33.2-60.1-4.2-60.1-4.2
		s15.3,4.6,22.8,6.8c7.6,2.1,10.8,3.2,17.3,7.6c6.5,4.4,14.6,11.4,22.3,16.2c7.6,4.9,17.9,12.9,17.9,12.9s-36.3,22.8-47.8,42.3
		c-11.4,19.5-29.8,51-36.3,60.1c-6.5,9.2-21.1,31-16.8,53.7c4.3,22.7,21.1,31.4,24.4,36.3c3.2,4.8,10.3,40.6,12.5,47.1
		c2.1,6.5,4.3,17.4,4.8,22.3c0.6,4.8-1.1,8.6,0.6,14.6c1.6,6,1.6,11.4,1.6,11.4s-13,15.2-22.3,21.2c-9.2,5.9-13,9.7-18.4,9.7
		c-5.4,0-10.8,0.6-13,4.3c-2.2,3.8-2.2,8.2-0.6,13.6c1.6,5.4,8.1,25.5,7,31.4c-0.8,4.6-2.3,9.9-2.5,13.5h-25.1v32H95.1v-32H68.6
		c-1.5-2.7-4.6-6.8-10.6-10.3c-10.3-6-27.1-15.2-28.2-19.5c-1.1-4.3,3.8-23.3,9.7-42.2c6-19,6.5-22.8,6.5-22.8s11.9-7.5,14.6-15.7
		c2.7-8.1,3.3-18.5,3.8-20c0.5-1.6,28.2-29.8,32-53.7c3.8-23.8,4.8-32,7.6-41.1c2.7-9.2,4.3-8.1,5.4-17.3c1.1-9.2,1.1-17.4,1.1-17.4
		s8.1-15.1,5.4-27.1c-2.7-11.8-7-11.8-8.1-22.7c-1.1-10.8-1.7-19.5,3.2-21.7c4.9-2.2,4.3-3.8,11.4-3.8c7,0,13,1.2,15.7-1.6
		c2.7-2.7,21.1-7.6,25.5-26.5C168.1,38.3,151.8,24.8,139.9,24.8z M-30.8,399.2c-2.7,6.5-9.7,10.4-10.3,14.1c-0.3,1.9-0.9,5-1.4,7.6
		h-19.8c0.5-10.8,2.7-31.1,4.8-36.3c2.7-6.4,0-7,7.6-12.4c7.5-5.4,17.3-10.3,17.3-10.3S-28.1,392.8-30.8,399.2z M24,2.4
		c2.1,1.6,8.8,7.7,18.7,10.6c11.2,3.3,17.3,7.8,22.2,14.2c4.8,6.5,8.9,14.4,8.9,14.4S62.1,27.1,55.6,23.4
		c-6.3-3.7-24-12.7-32.2-21.5C23.4,1.8,23.7,2.1,24,2.4z M30.4,235.7c-2.3-2.8-13.7-18.5-13.7-18.5s19.6,18.9,24.7,26.2
		c5.1,7.4,11.3,17.9,11.3,17.9S32.6,238.6,30.4,235.7z M78.6,200.1c-1.6,5.4-1.6,13.5-4.8,17.9c-3.3,4.3-6.5,18.4-8.1,23.9
		c-1.6,5.4-9.2,19-9.2,19s-8.7-16.3-26-33.6c-17.4-17.3-23.3-27.1-22.7-34.7c0.5-7.6,4.8-22.2,10.8-25.4c5.9-3.2,20.6-7.6,26.5-10.9
		c6-3.2,9.7-3.8,13.5-5.4c3.8-1.6,23.3-0.5,23.3-0.5s-2.7,10.3-2.2,20C80.3,180.1,80.3,194.7,78.6,200.1z M160.9,57.5
		c-1.8,8-12.9,16.4-12.9,16.4s5-5.7,9.1-16.7c4.1-11-3.4-20.1-3.4-20.1C162,41.5,162.8,49.6,160.9,57.5z"/>
</g>
</svg>
