<?xml version="1.0" encoding="utf-8"?>
<!-- Generator: Adobe Illustrator 19.0.0, SVG Export Plug-In . SVG Version: 6.00 Build 0)  -->
<svg version="1.1" id="Capa_1" xmlns="http://www.w3.org/2000/svg" xmlns:xlink="http://www.w3.org/1999/xlink" x="0px" y="0px"
	 width="50px" height="50px" viewBox="-268.8 370.8 50 50" style="enable-background:new -268.8 370.8 50 50;" xml:space="preserve"
	>
<style type="text/css">
	.st0{fill:#727272;}
</style>
<g id="Search">
	<path class="st0" d="M-236.2,401.6l-3.5-3.5c0,0,0,0-0.1,0c0.7-1,1.1-2.3,1.1-3.6c0-3.6-2.9-6.6-6.6-6.6s-6.6,2.9-6.6,6.6
		c0,3.6,2.9,6.6,6.6,6.6c1.3,0,2.6-0.4,3.6-1.1c0,0,0,0,0,0.1l3.5,3.5c0.5,0.5,1.4,0.5,1.9,0C-235.7,402.9-235.7,402.1-236.2,401.6z
		 M-245.3,398.7c-2.4,0-4.3-1.9-4.3-4.3c0-2.4,1.9-4.3,4.3-4.3c2.4,0,4.3,1.9,4.3,4.3C-241,396.8-242.9,398.7-245.3,398.7z"/>
</g>
</svg>
