<?xml version="1.0" encoding="utf-8"?>
<!-- Generator: Adobe Illustrator 19.0.0, SVG Export Plug-In . SVG Version: 6.00 Build 0)  -->
<svg version="1.1" id="Capa_1" xmlns="http://www.w3.org/2000/svg" xmlns:xlink="http://www.w3.org/1999/xlink" x="0px" y="0px"
	 width="512px" height="512px" viewBox="-243 -57 512 512" style="enable-background:new -243 -57 512 512;" xml:space="preserve">
<style type="text/css">
	.st0{fill:#FFFFFF;}
</style>
<g>
	<g>
		<polygon class="st0" points="83.4,109.2 60.3,-38.1 27,-38.1 34.8,109.2 		"/>
		<polygon class="st0" points="-87.2,433.4 -5.1,433.4 7,187.8 -48.8,187.8 		"/>
		<polygon class="st0" points="51.9,433.4 134.1,433.4 95.7,187.8 38.9,187.8 		"/>
		<polygon class="st0" points="10.8,109.2 18.1,-38.1 -13.4,-38.1 -36.5,109.2 		"/>
		<polygon class="st0" points="-179,178 -181.1,187.8 -187.1,217.3 -99.3,217.3 -93.3,187.8 -91.3,178 -89.2,168.2 -45.7,168.2 
			7.9,168.2 37.9,168.2 92.6,168.2 139.7,168.2 142,178 144.3,187.8 151.1,217.3 235.8,217.3 229,187.8 226.7,178 224.4,168.2 
			269,168.2 269,128.9 86.5,128.9 35.8,128.9 9.9,128.9 -39.6,128.9 -241.7,128.9 -241.7,168.2 -177,168.2 		"/>
	</g>
</g>
</svg>
