<?xml version="1.0" encoding="utf-8"?>
<!-- Generator: Adobe Illustrator 19.0.0, SVG Export Plug-In . SVG Version: 6.00 Build 0)  -->
<svg version="1.1"
	 id="圖層_1" xmlns:dc="http://purl.org/dc/elements/1.1/" xmlns:cc="http://creativecommons.org/ns#" xmlns:rdf="http://www.w3.org/1999/02/22-rdf-syntax-ns#"
	 xmlns="http://www.w3.org/2000/svg" xmlns:xlink="http://www.w3.org/1999/xlink" x="0px" y="0px" width="266.9px" height="266.9px"
	 viewBox="-327 262.8 266.9 266.9" style="enable-background:new -327 262.8 266.9 266.9;" xml:space="preserve">
<style type="text/css">
	.st0{fill:#1DA1F2;}
	.st1{fill:#FFFFFF;}
</style>
<rect x="-327" y="262.8" class="st0" width="266.9" height="266.9"/>
<g transform="translate(-539.18 -568.86)">
	<path class="st1" d="M310.3,1041.1c70.9,0,109.7-58.8,109.7-109.7c0-1.7,0-3.3-0.1-5c7.5-5.4,14.1-12.2,19.2-20
		c-6.9,3.1-14.3,5.1-22.1,6.1c8-4.8,14.1-12.3,17-21.3c-7.5,4.4-15.7,7.6-24.5,9.4c-7-7.5-17.1-12.2-28.2-12.2
		c-21.3,0-38.6,17.3-38.6,38.6c0,3,0.3,6,1,8.8c-32.1-1.6-60.5-17-79.5-40.3c-3.3,5.7-5.2,12.3-5.2,19.4c0,13.4,6.8,25.2,17.2,32.1
		c-6.3-0.2-12.3-1.9-17.5-4.8c0,0.2,0,0.3,0,0.5c0,18.7,13.3,34.3,30.9,37.8c-3.2,0.9-6.7,1.4-10.2,1.4c-2.5,0-4.9-0.2-7.2-0.7
		c4.9,15.3,19.1,26.5,36,26.8c-13.2,10.3-29.8,16.5-47.9,16.5c-3.1,0-6.2-0.2-9.2-0.5C268.3,1034.8,288.5,1041.1,310.3,1041.1"/>
</g>
</svg>
