<?xml version="1.0" encoding="utf-8"?>
<!-- Generator: Adobe Illustrator 19.0.0, SVG Export Plug-In . SVG Version: 6.00 Build 0)  -->
<svg version="1.1" id="Capa_1" xmlns="http://www.w3.org/2000/svg" xmlns:xlink="http://www.w3.org/1999/xlink" x="0px" y="0px"
	 width="512px" height="512px" viewBox="-243 -57 512 512" style="enable-background:new -243 -57 512 512;" xml:space="preserve">
<style type="text/css">
	.st0{fill:#FFFFFF;}
</style>
<g>
	<g>
		<path class="st0" d="M205,202.2h2.5c22.1,0,42.9-8.6,58.6-24.3c3.9-3.9,3.9-10.3,0-14.2c-3.9-3.9-10.3-3.9-14.2,0
			c-11.2,11.1-25.8,17.6-41.4,18.3L128,51.1V21.3c0-5.5-4.5-10-10-10c-5.5,0-10,4.5-10,10v22.6H-81.9V21.3c0-5.5-4.5-10-10-10
			c-5.5,0-10,4.5-10,10v29.8l-82.5,131c-15.6-0.7-30.2-7.2-41.4-18.3c-3.9-3.9-10.3-3.9-14.2,0c-3.9,3.9-3.9,10.3,0,14.2
			c15.7,15.6,36.5,24.3,58.6,24.3h2.5h28.5v164.4h-58.7c-5.5,0-10,4.5-10,10s4.5,10,10,10h444.5c5.5,0,10-4.5,10-10s-4.5-10-10-10
			h-58.7V202.2H205z M-86.4,64h198.8l30.9,49h-260.5L-86.4,64z M-99.8,366.6h-30.6V202.2h30.6V366.6z M61.6,366.6H23V323
			c0-5.5-4.5-10-10-10c-5.5,0-10,4.5-10,10v43.7h-38.6v-87.3h97.2L61.6,366.6L61.6,366.6z M105.7,366.6H81.7v-97.3
			c0-5.5-4.5-10-10-10H-45.6c-5.5,0-10,4.5-10,10v97.3h-24.1V202.2h24.1v9.8c0,5.5,4.5,10,10,10s10-4.5,10-10v-9.8H2.8v9.8
			c0,5.5,4.5,10,10,10c5.5,0,10-4.5,10-10v-9.8h38.7v9.8c0,5.5,4.5,10,10,10s10-4.5,10-10v-9.8h24.1L105.7,366.6L105.7,366.6z
			 M156.4,366.6h-30.6V202.2h30.6L156.4,366.6L156.4,366.6z M166.5,182.1h-50.7H-89.8h-50.7h-20.3l30.9-49h285.8l30.9,49H166.5z"/>
	</g>
</g>
<g>
	<g>
		<path class="st0" d="M143.8,147.7c-12.9,0-12.9,20.1,0,20.1C156.7,167.8,156.7,147.7,143.8,147.7z"/>
	</g>
</g>
<g>
	<g>
		<path class="st0" d="M111,147.4H55.4c-5.5,0-10,4.5-10,10s4.5,10,10,10H111c5.5,0,10-4.5,10-10S116.5,147.4,111,147.4z"/>
	</g>
</g>
</svg>
